HIERARCHY
ROOT hip
{
  OFFSET -1.62966 111.322 -0.413876
  CHANNELS 6 Xposition Yposition Zposition Zrotation Xrotation Yrotation
  JOINT abdomen
  {
    OFFSET 0 -1.186 -1.50178
    CHANNELS 6 Xposition Yposition Zposition Zrotation Xrotation Yrotation
    JOINT abdomen2
    {
      OFFSET 0 9.964 0.21338
      CHANNELS 6 Xposition Yposition Zposition Zrotation Xrotation Yrotation
      JOINT chest
      {
        OFFSET 0 13.134 -3.25729
        CHANNELS 6 Xposition Yposition Zposition Zrotation Xrotation Yrotation
        JOINT neck
        {
          OFFSET 0 21.686 -1.69049
          CHANNELS 6 Xposition Yposition Zposition Zrotation Xrotation Yrotation
          JOINT head
          {
            OFFSET 0 11.838 -0.12368
            CHANNELS 6 Xposition Yposition Zposition Zrotation Xrotation Yrotation
            End Site
            {
              OFFSET 0 6.717 2.38717
            }
          }
        }
        JOINT lCollar
        {
          OFFSET 1.70688 20.075 5.0056
          CHANNELS 6 Xposition Yposition Zposition Zrotation Xrotation Yrotation
          JOINT lShldr
          {
            OFFSET 13.6458 -0.047012 -4.84902
            CHANNELS 6 Xposition Yposition Zposition Zrotation Xrotation Yrotation
            JOINT lForeArm
            {
              OFFSET 28.3255 -0.975903 2.28883
              CHANNELS 6 Xposition Yposition Zposition Zrotation Xrotation Yrotation
              JOINT lHand
              {
                OFFSET 22.1583 -0.530035 10.8316
                CHANNELS 6 Xposition Yposition Zposition Zrotation Xrotation Yrotation
                JOINT lThumb1
                {
                  OFFSET 0.785995 0.111999 2.58168
                  CHANNELS 6 Xposition Yposition Zposition Zrotation Xrotation Yrotation
                  JOINT lThumb2
                  {
                    OFFSET 0.3601 -0.878005 4.2331
                    CHANNELS 6 Xposition Yposition Zposition Zrotation Xrotation Yrotation
                    End Site
                    {
                      OFFSET 1.81271 -1.21601 2.2227
                    }
                  }
                }
                JOINT lCarpal1
                {
                  OFFSET 0.9571 1.114 1.76948
                  CHANNELS 6 Xposition Yposition Zposition Zrotation Xrotation Yrotation
                  JOINT lIndex1
                  {
                    OFFSET 4.1246 0.487 4.1451
                    CHANNELS 6 Xposition Yposition Zposition Zrotation Xrotation Yrotation
                    JOINT lIndex2
                    {
                      OFFSET 3.40521 -1.45401 2.7682
                      CHANNELS 6 Xposition Yposition Zposition Zrotation Xrotation Yrotation
                      End Site
                      {
                        OFFSET 1.4531 -1.795 1.2713
                      }
                    }
                  }
                  JOINT lMid1
                  {
                    OFFSET 5.6954 0.209991 2.1184
                    CHANNELS 6 Xposition Yposition Zposition Zrotation Xrotation Yrotation
                    JOINT lMid2
                    {
                      OFFSET 3.9766 -1.53999 2.3863
                      CHANNELS 6 Xposition Yposition Zposition Zrotation Xrotation Yrotation
                      End Site
                      {
                        OFFSET 1.4042 -1.926 1.125
                      }
                    }
                  }
                }
                JOINT lCarpal2
                {
                  OFFSET 2.09559 0.65999 -0.38939
                  CHANNELS 6 Xposition Yposition Zposition Zrotation Xrotation Yrotation
                  JOINT lRing1
                  {
                    OFFSET 5.0395 -0.089997 2.49707
                    CHANNELS 6 Xposition Yposition Zposition Zrotation Xrotation Yrotation
                    JOINT lRing2
                    {
                      OFFSET 3.7921 -1.552 1.4806
                      CHANNELS 6 Xposition Yposition Zposition Zrotation Xrotation Yrotation
                      End Site
                      {
                        OFFSET 1.4655 -1.808 0.9609
                      }
                    }
                  }
                  JOINT lPinky1
                  {
                    OFFSET 4.9141 -1.269 0.35915
                    CHANNELS 6 Xposition Yposition Zposition Zrotation Xrotation Yrotation
                    JOINT lPinky2
                    {
                      OFFSET 3.1477 -1.685 0.84623
                      CHANNELS 6 Xposition Yposition Zposition Zrotation Xrotation Yrotation
                      End Site
                      {
                        OFFSET 0.805505 -1.58499 0.79549
                      }
                    }
                  }
                }
              }
            }
          }
        }
        JOINT rCollar
        {
          OFFSET -1.70688 20.075 5.0056
          CHANNELS 6 Xposition Yposition Zposition Zrotation Xrotation Yrotation
          JOINT rShldr
          {
            OFFSET -13.6458 -0.047012 -4.84902
            CHANNELS 6 Xposition Yposition Zposition Zrotation Xrotation Yrotation
            JOINT rForeArm
            {
              OFFSET -28.3255 -0.975903 2.28883
              CHANNELS 6 Xposition Yposition Zposition Zrotation Xrotation Yrotation
              JOINT rHand
              {
                OFFSET -22.1583 -0.530036 10.8316
                CHANNELS 6 Xposition Yposition Zposition Zrotation Xrotation Yrotation
                JOINT rThumb1
                {
                  OFFSET -0.785995 0.111999 2.58168
                  CHANNELS 6 Xposition Yposition Zposition Zrotation Xrotation Yrotation
                  JOINT rThumb2
                  {
                    OFFSET -0.3601 -0.878005 4.2331
                    CHANNELS 6 Xposition Yposition Zposition Zrotation Xrotation Yrotation
                    End Site
                    {
                      OFFSET -1.81271 -1.21601 2.2227
                    }
                  }
                }
                JOINT rCarpal1
                {
                  OFFSET -0.9571 1.114 1.76948
                  CHANNELS 6 Xposition Yposition Zposition Zrotation Xrotation Yrotation
                  JOINT rIndex1
                  {
                    OFFSET -4.1246 0.487 4.1451
                    CHANNELS 6 Xposition Yposition Zposition Zrotation Xrotation Yrotation
                    JOINT rIndex2
                    {
                      OFFSET -3.40521 -1.45401 2.7682
                      CHANNELS 6 Xposition Yposition Zposition Zrotation Xrotation Yrotation
                      End Site
                      {
                        OFFSET -1.4531 -1.795 1.2713
                      }
                    }
                  }
                  JOINT rMid1
                  {
                    OFFSET -5.6954 0.209991 2.1184
                    CHANNELS 6 Xposition Yposition Zposition Zrotation Xrotation Yrotation
                    JOINT rMid2
                    {
                      OFFSET -3.9766 -1.53999 2.3863
                      CHANNELS 6 Xposition Yposition Zposition Zrotation Xrotation Yrotation
                      End Site
                      {
                        OFFSET -1.4042 -1.926 1.125
                      }
                    }
                  }
                }
                JOINT rCarpal2
                {
                  OFFSET -2.09559 0.65999 -0.38939
                  CHANNELS 6 Xposition Yposition Zposition Zrotation Xrotation Yrotation
                  JOINT rRing1
                  {
                    OFFSET -5.0395 -0.089997 2.49707
                    CHANNELS 6 Xposition Yposition Zposition Zrotation Xrotation Yrotation
                    JOINT rRing2
                    {
                      OFFSET -3.7921 -1.552 1.4806
                      CHANNELS 6 Xposition Yposition Zposition Zrotation Xrotation Yrotation
                      End Site
                      {
                        OFFSET -1.4655 -1.808 0.9609
                      }
                    }
                  }
                  JOINT rPinky1
                  {
                    OFFSET -4.9141 -1.269 0.35915
                    CHANNELS 6 Xposition Yposition Zposition Zrotation Xrotation Yrotation
                    JOINT rPinky2
                    {
                      OFFSET -3.1477 -1.685 0.84623
                      CHANNELS 6 Xposition Yposition Zposition Zrotation Xrotation Yrotation
                      End Site
                      {
                        OFFSET -0.805505 -1.58499 0.79549
                      }
                    }
                  }
                }
              }
            }
          }
        }
      }
    }
  }
  JOINT lThigh
  {
    OFFSET 8.367 -8.2066 0.59823
    CHANNELS 6 Xposition Yposition Zposition Zrotation Xrotation Yrotation
    JOINT lShin
    {
      OFFSET 2.19232 -43.463 -0.493181
      CHANNELS 6 Xposition Yposition Zposition Zrotation Xrotation Yrotation
      JOINT lFoot
      {
        OFFSET 0.733257 -45.8593 -2.64513
        CHANNELS 6 Xposition Yposition Zposition Zrotation Xrotation Yrotation
        End Site
        {
          OFFSET 2.6618 -4.26993 12.3931
        }
      }
    }
  }
  JOINT rThigh
  {
    OFFSET -8.367 -8.2066 0.59823
    CHANNELS 6 Xposition Yposition Zposition Zrotation Xrotation Yrotation
    JOINT rShin
    {
      OFFSET -2.19233 -43.463 -0.493108
      CHANNELS 6 Xposition Yposition Zposition Zrotation Xrotation Yrotation
      JOINT rFoot
      {
        OFFSET -0.733256 -45.8593 -2.64514
        CHANNELS 6 Xposition Yposition Zposition Zrotation Xrotation Yrotation
        End Site
        {
          OFFSET -2.6618 -4.26993 12.3931
        }
      }
    }
  }
}
MOTION
Frames:	5
Frame Time:	0.0333333
-5.64967e-005 103.993 -1.42212 0 0 -0 0 -1.186 -1.50178 0 0 -0 0 9.964 0.21338 0 0 -0 0 13.134 -3.25729 0 0 -0 0 21.686 -1.69049 0 0 -0 0 11.838 -0.12368 0 0 -0 1.70688 20.075 5.0056 0 0 -0 13.6458 -0.047012 -4.84902 0.00127061 0.00076837 5.45741 28.3255 -0.975903 2.28883 -0.0012455 -0.000652875 21.1674 22.1583 -0.530035 10.8316 -8.30021e-005 4.16094e-005 0.000111497 0.785995 0.111999 2.58168 -1.44635e-027 0 -0 0.3601 -0.878005 4.2331 1.44635e-027 0 -3.18055e-015 0.9571 1.114 1.76948 -1.44635e-027 0 -0 4.1246 0.487 4.1451 1.44635e-027 0 -3.18055e-015 3.40521 -1.45401 2.7682 2.8927e-027 2.8927e-027 -0 5.6954 0.209991 2.1184 1.44635e-027 0 -3.18055e-015 3.9766 -1.53999 2.3863 2.8927e-027 2.8927e-027 -0 2.09559 0.65999 -0.38939 -1.44635e-027 0 -0 5.0395 -0.089997 2.49707 1.44635e-027 0 -3.18055e-015 3.7921 -1.552 1.4806 2.8927e-027 2.8927e-027 -0 4.9141 -1.269 0.35915 1.44635e-027 0 -3.18055e-015 3.1477 -1.685 0.84623 2.8927e-027 2.8927e-027 -0 -1.70688 20.075 5.0056 0 0 -0 -13.6458 -0.047012 -4.84902 -0.00127695 0.000812872 -6.04358 -28.3255 -0.975903 2.28883 0.00127231 -0.000687016 -20.3599 -22.1583 -0.530036 10.8316 7.3373e-005 4.12064e-005 -0.000103872 -0.785995 0.111999 2.58168 -4.33905e-027 -2.8927e-027 -0 -0.3601 -0.878005 4.2331 -1.15708e-026 -1.44635e-027 -0 -0.9571 1.114 1.76948 -4.33905e-027 -2.8927e-027 -0 -4.1246 0.487 4.1451 -1.15708e-026 -1.44635e-027 -0 -3.40521 -1.45401 2.7682 1.2294e-026 -1.44635e-027 -0 -5.6954 0.209991 2.1184 -1.15708e-026 -1.44635e-027 -0 -3.9766 -1.53999 2.3863 1.2294e-026 -1.44635e-027 -0 -2.09559 0.65999 -0.38939 -4.33905e-027 -2.8927e-027 -0 -5.0395 -0.089997 2.49707 -1.15708e-026 -1.44635e-027 -0 -3.7921 -1.552 1.4806 1.2294e-026 -1.44635e-027 -0 -4.9141 -1.269 0.35915 -1.15708e-026 -1.44635e-027 -0 -3.1477 -1.685 0.84623 1.2294e-026 -1.44635e-027 -0 8.367 -8.2066 0.59823 -1.3639 -2.01175 -0.0420488 2.19232 -43.463 -0.493181 0.00228451 0.000300322 0.0386569 0.733257 -45.8593 -2.64513 1.36234 2.01096 -0.0445039 -8.367 -8.2066 0.59823 1.36393 -2.00939 0.0419303 -2.19233 -43.463 -0.493108 -0.00224993 -0.0024426 -0.0385396 -0.733256 -45.8593 -2.64514 -1.36241 2.01134 0.0445153 
-0.318772 115.106 -2.36722 1.05954 -5.8662 2.68653 -2.22045e-016 -1.186 -1.50178 -0.275268 1.48421 0.312168 0 9.964 0.21338 -0.5589 2.96687 0.631782 5.55112e-017 13.134 -3.25729 -0.5589 2.96687 0.63178 -2.22045e-016 21.686 -1.69049 7.3991 6.85441 -3.55057 0 11.838 -0.12368 -4.3546 -0.882364 0.0105823 1.70688 20.075 5.0056 -31.0336 3.61044 -6.21278 13.6458 -0.047012 -4.84902 -38.8372 32.6088 -8.15461 28.3255 -0.975903 2.28883 -7.20487 -10.9951 14.8232 22.1583 -0.530035 10.8316 -8.01311 4.1678 -1.66445 0.785995 0.111999 2.58168 1.59028e-015 0 -0 0.3601 -0.878005 4.2331 2.38542e-015 0 1.59028e-015 0.9571 1.114 1.76948 1.59028e-015 0 -0 4.1246 0.487 4.1451 2.38542e-015 0 1.59028e-015 3.40521 -1.45401 2.7682 7.95139e-016 -3.18055e-015 -3.18055e-015 5.6954 0.209991 2.1184 2.38542e-015 0 1.59028e-015 3.9766 -1.53999 2.3863 7.95139e-016 -3.18055e-015 -3.18055e-015 2.09559 0.65999 -0.38939 1.59028e-015 0 -0 5.0395 -0.089997 2.49707 2.38542e-015 0 1.59028e-015 3.7921 -1.552 1.4806 7.95139e-016 -3.18055e-015 -3.18055e-015 4.9141 -1.269 0.35915 2.38542e-015 0 1.59028e-015 3.1477 -1.685 0.84623 7.95139e-016 -3.18055e-015 -3.18055e-015 -1.70688 20.075 5.0056 25.2818 5.66332 14.3596 -13.6458 -0.047012 -4.84902 51.2869 14.5558 -3.49189 -28.3255 -0.975903 2.28883 4.10464 -3.36265 -9.62704 -22.1583 -0.530036 10.8316 2.35262 1.29373 4.80612 -0.785995 0.111999 2.58168 -8.82781e-032 -6.36111e-015 -7.95139e-016 -0.3601 -0.878005 4.2331 -5.29669e-031 -1.27222e-014 -2.38542e-015 -0.9571 1.114 1.76948 -8.82781e-032 -6.36111e-015 -7.95139e-016 -4.1246 0.487 4.1451 -5.29669e-031 -1.27222e-014 -2.38542e-015 -3.40521 -1.45401 2.7682 -1.98785e-015 -1.27222e-014 -1.59028e-015 -5.6954 0.209991 2.1184 -5.29669e-031 -1.27222e-014 -2.38542e-015 -3.9766 -1.53999 2.3863 -1.98785e-015 -1.27222e-014 -1.59028e-015 -2.09559 0.65999 -0.38939 -8.82781e-032 -6.36111e-015 -7.95139e-016 -5.0395 -0.089997 2.49707 -5.29669e-031 -1.27222e-014 -2.38542e-015 -3.7921 -1.552 1.4806 -1.98785e-015 -1.27222e-014 -1.59028e-015 -4.9141 -1.269 0.35915 -5.29669e-031 -1.27222e-014 -2.38542e-015 -3.1477 -1.685 0.84623 -1.98785e-015 -1.27222e-014 -1.59028e-015 8.367 -8.2066 0.59823 -0.711572 2.84978 7.35091 2.19232 -43.463 -0.493181 -1.08925 8.44856 -14.2917 0.733257 -45.8593 -2.64513 4.92792 -6.00949 0.243157 -8.367 -8.2066 0.59823 0.57074 4.91895 -8.18887 -2.19233 -43.463 -0.493108 -0.183297 5.93256 0.20531 -0.733256 -45.8593 -2.64514 -11.284 -2.51488 -0.146558 
-0.253449 115.13 -2.33985 1.00056 -5.91153 2.62347 -4.44089e-016 -1.186 -1.50178 -0.243436 1.49471 0.321599 1.11022e-016 9.964 0.21338 -0.495518 2.98801 0.649881 -5.55112e-017 13.134 -3.25729 -0.495518 2.98801 0.64988 -4.44089e-016 21.686 -1.69049 6.87272 6.83684 -3.36312 -1.77636e-015 11.838 -0.12368 -3.61977 -0.853976 -0.148833 1.70688 20.075 5.0056 -31.2352 3.61259 -6.16644 13.6458 -0.047012 -4.84902 -38.4398 32.8701 -8.44772 28.3255 -0.975903 2.28883 -7.33043 -11.2312 15.0059 22.1583 -0.530035 10.8316 -7.91833 4.12097 -1.67078 0.785995 0.111999 2.58168 -1.59028e-015 0 -3.18055e-015 0.3601 -0.878005 4.2331 0 0 -3.18055e-015 0.9571 1.114 1.76948 -1.59028e-015 0 -3.18055e-015 4.1246 0.487 4.1451 0 0 -3.18055e-015 3.40521 -1.45401 2.7682 -2.64834e-031 3.18055e-015 4.77083e-015 5.6954 0.209991 2.1184 0 0 -3.18055e-015 3.9766 -1.53999 2.3863 -2.64834e-031 3.18055e-015 4.77083e-015 2.09559 0.65999 -0.38939 -1.59028e-015 0 -3.18055e-015 5.0395 -0.089997 2.49707 0 0 -3.18055e-015 3.7921 -1.552 1.4806 -2.64834e-031 3.18055e-015 4.77083e-015 4.9141 -1.269 0.35915 0 0 -3.18055e-015 3.1477 -1.685 0.84623 -2.64834e-031 3.18055e-015 4.77083e-015 -1.70688 20.075 5.0056 25.1918 5.6429 14.3443 -13.6458 -0.047012 -4.84902 51.2999 14.7519 -3.46427 -28.3255 -0.975903 2.28883 4.28009 -3.75886 -9.49715 -22.1583 -0.530036 10.8316 2.30186 1.26138 4.62047 -0.785995 0.111999 2.58168 3.18055e-015 0 7.95139e-016 -0.3601 -0.878005 4.2331 1.98785e-015 -3.18055e-015 1.59028e-015 -0.9571 1.114 1.76948 3.18055e-015 0 7.95139e-016 -4.1246 0.487 4.1451 1.98785e-015 -3.18055e-015 1.59028e-015 -3.40521 -1.45401 2.7682 1.59028e-015 0 1.59028e-015 -5.6954 0.209991 2.1184 1.98785e-015 -3.18055e-015 1.59028e-015 -3.9766 -1.53999 2.3863 1.59028e-015 0 1.59028e-015 -2.09559 0.65999 -0.38939 3.18055e-015 0 7.95139e-016 -5.0395 -0.089997 2.49707 1.98785e-015 -3.18055e-015 1.59028e-015 -3.7921 -1.552 1.4806 1.59028e-015 0 1.59028e-015 -4.9141 -1.269 0.35915 1.98785e-015 -3.18055e-015 1.59028e-015 -3.1477 -1.685 0.84623 1.59028e-015 0 1.59028e-015 8.367 -8.2066 0.59823 -0.731865 3.06405 7.31753 2.19232 -43.463 -0.493181 -1.0767 8.21235 -14.2602 0.733257 -45.8593 -2.64513 5.09042 -6.02592 0.237841 -8.367 -8.2066 0.59823 0.662988 4.94391 -8.11974 -2.19233 -43.463 -0.493108 -0.16724 5.94974 1.43689 -0.733256 -45.8593 -2.64514 -12.4446 -1.15279 -0.0267736 
-0.260301 115.092 -2.29794 1.12378 -5.9407 2.57247 0 -1.186 -1.50178 -0.271911 1.50688 0.353075 0 9.964 0.21338 -0.55339 3.01201 0.713675 -1.11022e-016 13.134 -3.25729 -0.553391 3.01201 0.713676 -4.44089e-016 21.686 -1.69049 6.55391 6.3957 -3.13613 -1.77636e-015 11.838 -0.12368 -2.94452 -0.144158 -0.183155 1.70688 20.075 5.0056 -31.2868 3.64183 -6.23052 13.6458 -0.047012 -4.84902 -38.7227 31.7967 -8.7078 28.3255 -0.975903 2.28883 -7.08982 -10.3987 15.9043 22.1583 -0.530035 10.8316 -7.82131 4.07507 -1.7357 0.785995 0.111999 2.58168 -8.82781e-032 3.18055e-015 1.59028e-015 0.3601 -0.878005 4.2331 7.95139e-016 3.18055e-015 3.18055e-015 0.9571 1.114 1.76948 -8.82781e-032 3.18055e-015 1.59028e-015 4.1246 0.487 4.1451 7.95139e-016 3.18055e-015 3.18055e-015 3.40521 -1.45401 2.7682 7.95139e-016 0 -0 5.6954 0.209991 2.1184 7.95139e-016 3.18055e-015 3.18055e-015 3.9766 -1.53999 2.3863 7.95139e-016 0 -0 2.09559 0.65999 -0.38939 -8.82781e-032 3.18055e-015 1.59028e-015 5.0395 -0.089997 2.49707 7.95139e-016 3.18055e-015 3.18055e-015 3.7921 -1.552 1.4806 7.95139e-016 0 -0 4.9141 -1.269 0.35915 7.95139e-016 3.18055e-015 3.18055e-015 3.1477 -1.685 0.84623 7.95139e-016 0 -0 -1.70688 20.075 5.0056 25.2658 5.66706 14.3791 -13.6458 -0.047012 -4.84902 51.2404 14.2058 -3.58321 -28.3255 -0.975903 2.28883 3.50313 -1.87687 -9.45622 -22.1583 -0.530036 10.8316 1.87641 1.01911 4.21648 -0.785995 0.111999 2.58168 2.78299e-015 3.18055e-015 7.95139e-016 -0.3601 -0.878005 4.2331 1.19271e-015 3.18055e-015 -7.95139e-016 -0.9571 1.114 1.76948 2.78299e-015 3.18055e-015 7.95139e-016 -4.1246 0.487 4.1451 1.19271e-015 3.18055e-015 -7.95139e-016 -3.40521 -1.45401 2.7682 3.97569e-016 6.36111e-015 -2.38542e-015 -5.6954 0.209991 2.1184 1.19271e-015 3.18055e-015 -7.95139e-016 -3.9766 -1.53999 2.3863 3.97569e-016 6.36111e-015 -2.38542e-015 -2.09559 0.65999 -0.38939 2.78299e-015 3.18055e-015 7.95139e-016 -5.0395 -0.089997 2.49707 1.19271e-015 3.18055e-015 -7.95139e-016 -3.7921 -1.552 1.4806 3.97569e-016 6.36111e-015 -2.38542e-015 -4.9141 -1.269 0.35915 1.19271e-015 3.18055e-015 -7.95139e-016 -3.1477 -1.685 0.84623 3.97569e-016 6.36111e-015 -2.38542e-015 8.367 -8.2066 0.59823 -0.889393 3.05951 7.27209 2.19232 -43.463 -0.493181 -1.03293 8.34853 -14.0767 0.733257 -45.8593 -2.64513 4.963 -6.16972 0.24033 -8.367 -8.2066 0.59823 0.496206 5.05879 -8.21693 -2.19233 -43.463 -0.493108 -0.0258591 5.84293 1.93227 -0.733256 -45.8593 -2.64514 -12.4668 -1.01125 -0.0112548 
-0.27337 115.069 -2.2651 1.14896 -5.86633 2.5201 0 -1.186 -1.50178 -0.257276 1.49685 0.345683 -2.22045e-016 9.964 0.21338 -0.523855 2.99211 0.698448 -5.55112e-017 13.134 -3.25729 -0.523855 2.99211 0.69845 -2.22045e-016 21.686 -1.69049 6.40763 6.20108 -3.04249 0 11.838 -0.12368 -2.89989 0.180026 -0.152287 1.70688 20.075 5.0056 -31.4247 3.62589 -6.15303 13.6458 -0.047012 -4.84902 -38.5841 31.9591 -8.65672 28.3255 -0.975903 2.28883 -7.0788 -10.4303 15.5687 22.1583 -0.530035 10.8316 -8.01514 4.15126 -1.45449 0.785995 0.111999 2.58168 7.95139e-016 -3.18055e-015 -0 0.3601 -0.878005 4.2331 -7.95139e-016 -6.36111e-015 4.77083e-015 0.9571 1.114 1.76948 7.95139e-016 -3.18055e-015 -0 4.1246 0.487 4.1451 -7.95139e-016 -6.36111e-015 4.77083e-015 3.40521 -1.45401 2.7682 -1.59028e-015 -3.18055e-015 -1.59028e-015 5.6954 0.209991 2.1184 -7.95139e-016 -6.36111e-015 4.77083e-015 3.9766 -1.53999 2.3863 -1.59028e-015 -3.18055e-015 -1.59028e-015 2.09559 0.65999 -0.38939 7.95139e-016 -3.18055e-015 -0 5.0395 -0.089997 2.49707 -7.95139e-016 -6.36111e-015 4.77083e-015 3.7921 -1.552 1.4806 -1.59028e-015 -3.18055e-015 -1.59028e-015 4.9141 -1.269 0.35915 -7.95139e-016 -6.36111e-015 4.77083e-015 3.1477 -1.685 0.84623 -1.59028e-015 -3.18055e-015 -1.59028e-015 -1.70688 20.075 5.0056 25.0147 5.64586 14.4486 -13.6458 -0.047012 -4.84902 51.5161 14.143 -3.53529 -28.3255 -0.975903 2.28883 3.38222 -1.55428 -9.52465 -22.1583 -0.530036 10.8316 1.54543 0.839662 4.22397 -0.785995 0.111999 2.58168 7.95139e-016 0 -7.95139e-016 -0.3601 -0.878005 4.2331 1.19271e-015 -3.18055e-015 -1.59028e-015 -0.9571 1.114 1.76948 7.95139e-016 0 -7.95139e-016 -4.1246 0.487 4.1451 1.19271e-015 -3.18055e-015 -1.59028e-015 -3.40521 -1.45401 2.7682 -7.95139e-016 -3.18055e-015 -0 -5.6954 0.209991 2.1184 1.19271e-015 -3.18055e-015 -1.59028e-015 -3.9766 -1.53999 2.3863 -7.95139e-016 -3.18055e-015 -0 -2.09559 0.65999 -0.38939 7.95139e-016 0 -7.95139e-016 -5.0395 -0.089997 2.49707 1.19271e-015 -3.18055e-015 -1.59028e-015 -3.7921 -1.552 1.4806 -7.95139e-016 -3.18055e-015 -0 -4.9141 -1.269 0.35915 1.19271e-015 -3.18055e-015 -1.59028e-015 -3.1477 -1.685 0.84623 -7.95139e-016 -3.18055e-015 -0 8.367 -8.2066 0.59823 -0.940671 3.1037 7.21841 2.19232 -43.463 -0.493181 -0.993549 8.20089 -14.0374 0.733257 -45.8593 -2.64513 5.02409 -6.21604 0.242776 -8.367 -8.2066 0.59823 0.463717 4.94491 -8.22544 -2.19233 -43.463 -0.493108 -0.0100789 5.90246 1.95098 -0.733256 -45.8593 -2.64514 -12.9307 -0.842706 0.00766052 
